<svg width="120" height="48" viewBox="0 0 120 48" fill="none" xmlns="http://www.w3.org/2000/svg">
    <path fill-rule="evenodd" clip-rule="evenodd" d="M96 48H0V24C0 10.7452 10.7452 0 24 0H96C109.255 0 120 10.7452 120 24V24C120 37.2548 109.255 48 96 48Z" fill="#0A0066"/>
    <path fill-rule="evenodd" clip-rule="evenodd" d="M57.6737 18.279C59.0158 18.279 60.1022 19.3695 60.1022 20.7167V33.4182C60.1022 34.7654 59.0158 35.8559 57.6737 35.8559C56.3317 35.8559 55.2453 34.7654 55.2453 33.4182V33.2258C54.1269 34.6692 52.689 35.9842 50.2286 35.9842C46.554 35.9842 44.4131 33.5465 44.4131 29.6013V20.7167C44.4131 19.3695 45.4995 18.279 46.8416 18.279C48.1836 18.279 49.27 19.3695 49.27 20.7167V28.0617C49.27 30.3711 50.3564 31.5579 52.2097 31.5579C54.063 31.5579 55.2453 30.3711 55.2453 28.0617V20.7167C55.2453 19.3695 56.3317 18.279 57.6737 18.279ZM22.6781 13.8563C24.02 13.8563 25.1065 14.9468 25.1065 16.294V18.4429H27.2474C28.3977 18.4429 29.3243 19.3731 29.3243 20.5278C29.3243 21.6825 28.3977 22.6126 27.2474 22.6126H25.1065V29.9577C25.1065 31.0803 25.5858 31.6256 26.6722 31.6256C26.8319 31.6256 27.1515 31.5935 27.2474 31.5935C28.3338 31.5935 29.2604 32.4916 29.2604 33.6143C29.2604 34.4803 28.6853 35.1859 28.0142 35.4425C27.1195 35.7953 26.2888 35.9236 25.2343 35.9236C22.2626 35.9236 20.2496 34.8432 20.2496 30.7596V22.6126H20.0898C18.9395 22.6126 18.0128 21.6825 18.0128 20.5278C18.0128 19.3731 18.9395 18.4429 20.0898 18.4429H20.2496V16.294C20.2496 14.9468 21.336 13.8563 22.6781 13.8563ZM98.3185 12.0244C99.0854 12.0244 99.7564 12.0565 100.3 12.1527C101.13 12.281 101.961 13.0188 101.961 14.1093C101.961 15.1998 101.066 16.13 99.9801 16.13H99.5647C98.4463 16.13 97.8073 16.7074 97.8073 17.9904V18.6639H99.9162C101.035 18.6639 101.929 19.5299 101.929 20.6525C101.929 21.7751 101.035 22.6411 99.9162 22.6411H97.8712V33.4182C97.8712 34.7654 96.7847 35.8559 95.4427 35.8559C94.1007 35.8559 93.0143 34.7654 93.0143 33.4182V22.6411H92.8225C91.7041 22.6411 90.8094 21.7751 90.8094 20.6525C90.8094 19.5299 91.7041 18.6318 92.8225 18.6318H93.0143V17.5412C93.0143 15.6489 93.4935 14.2697 94.3882 13.3716C95.2829 12.4735 96.593 12.0244 98.3185 12.0244ZM83.3789 18.1507C86.9896 18.1507 89.1624 20.3318 89.1624 24.4694V33.4182C89.1624 34.7654 88.076 35.8559 86.7339 35.8559C85.3919 35.8559 84.3055 34.7654 84.3055 33.4182V26.0732C84.3055 23.7638 83.283 22.577 81.4617 22.577C79.6403 22.577 78.522 23.7638 78.522 26.0732V33.4182C78.522 34.7654 77.4355 35.8559 76.0935 35.8559C74.7514 35.8559 73.6651 34.7654 73.6651 33.4182V26.0732C73.6651 23.7638 72.6426 22.577 70.8212 22.577C68.9998 22.577 67.8815 23.7638 67.8815 26.0732V33.4182C67.8815 34.7654 66.7951 35.8559 65.453 35.8559C64.111 35.8559 63.0246 34.7654 63.0246 33.4182V20.7167C63.0246 19.3695 64.111 18.279 65.453 18.279C66.7951 18.279 67.8815 19.3695 67.8815 20.7167V20.9091C68.9998 19.4657 70.4697 18.1507 72.9301 18.1507C75.1669 18.1507 76.8604 19.145 77.7551 20.877C79.2569 19.1129 81.0463 18.1507 83.3789 18.1507ZM39.9843 18.279C41.4861 18.279 42.3489 19.2733 42.3489 20.6525C42.3489 21.9355 41.518 22.7053 40.5275 22.9298C38.0671 23.5072 36.6931 25.3996 36.6931 28.8636V33.4182C36.6931 34.7654 35.6067 35.8559 34.2647 35.8559C32.9226 35.8559 31.8362 34.7654 31.8362 33.4182V20.7167C31.8362 19.3695 32.9226 18.279 34.2647 18.279C35.6067 18.279 36.6931 19.3695 36.6931 20.7167V21.4865C37.3961 19.8186 38.5464 18.279 39.9843 18.279Z" fill="white"/>
</svg>
